<mxfile host="app.diagrams.net" agent="Mozilla/5.0 (Windows NT 10.0; Win64; x64) AppleWebKit/537.36 (KHTML, like Gecko) Chrome/138.0.0.0 Safari/537.36" version="28.0.7">
  <diagram name="Halaman-1" id="uK1lXxShzl_tJUOJtHZC">
    <mxGraphModel dx="2256" dy="820" grid="1" gridSize="10" guides="1" tooltips="1" connect="1" arrows="1" fold="1" page="1" pageScale="1" pageWidth="827" pageHeight="1169" math="0" shadow="0">
      <root>
        <mxCell id="0" />
        <mxCell id="1" parent="0" />
        <mxCell id="WBBm-CLDshW_mHcTqunQ-7" value="User" style="swimlane;whiteSpace=wrap;html=1;" parent="1" vertex="1">
          <mxGeometry x="-764" y="70" width="330" height="450" as="geometry" />
        </mxCell>
        <mxCell id="HcfepV2I2PUodawztDky-1" style="edgeStyle=orthogonalEdgeStyle;rounded=0;orthogonalLoop=1;jettySize=auto;html=1;" parent="WBBm-CLDshW_mHcTqunQ-7" source="VEq-Q2ySDu8XHJlhrdmW-1" target="WBBm-CLDshW_mHcTqunQ-2" edge="1">
          <mxGeometry relative="1" as="geometry" />
        </mxCell>
        <mxCell id="VEq-Q2ySDu8XHJlhrdmW-1" value="Mulai" style="ellipse;whiteSpace=wrap;html=1;" parent="WBBm-CLDshW_mHcTqunQ-7" vertex="1">
          <mxGeometry x="105" y="40" width="120" height="30" as="geometry" />
        </mxCell>
        <mxCell id="WBBm-CLDshW_mHcTqunQ-2" value="Membuka laman url sisemar" style="rounded=0;whiteSpace=wrap;html=1;" parent="WBBm-CLDshW_mHcTqunQ-7" vertex="1">
          <mxGeometry x="87" y="90" width="156" height="30" as="geometry" />
        </mxCell>
        <mxCell id="WBBm-CLDshW_mHcTqunQ-3" value="Input username dan password" style="shape=parallelogram;perimeter=parallelogramPerimeter;whiteSpace=wrap;html=1;fixedSize=1;" parent="WBBm-CLDshW_mHcTqunQ-7" vertex="1">
          <mxGeometry x="93" y="140" width="150" height="60" as="geometry" />
        </mxCell>
        <mxCell id="WBBm-CLDshW_mHcTqunQ-8" value="Sistem" style="swimlane;whiteSpace=wrap;html=1;startSize=23;" parent="1" vertex="1">
          <mxGeometry x="-404" y="70" width="340" height="450" as="geometry" />
        </mxCell>
        <mxCell id="WBBm-CLDshW_mHcTqunQ-11" value="Tampilan login SISEMAR" style="rounded=0;whiteSpace=wrap;html=1;" parent="WBBm-CLDshW_mHcTqunQ-8" vertex="1">
          <mxGeometry x="92" y="90" width="156" height="30" as="geometry" />
        </mxCell>
        <mxCell id="HcfepV2I2PUodawztDky-4" style="edgeStyle=orthogonalEdgeStyle;rounded=0;orthogonalLoop=1;jettySize=auto;html=1;" parent="WBBm-CLDshW_mHcTqunQ-8" source="WBBm-CLDshW_mHcTqunQ-1" target="WBBm-CLDshW_mHcTqunQ-12" edge="1">
          <mxGeometry relative="1" as="geometry" />
        </mxCell>
        <mxCell id="HcfepV2I2PUodawztDky-8" style="edgeStyle=orthogonalEdgeStyle;rounded=0;orthogonalLoop=1;jettySize=auto;html=1;entryX=1;entryY=0.25;entryDx=0;entryDy=0;" parent="WBBm-CLDshW_mHcTqunQ-8" edge="1">
          <mxGeometry relative="1" as="geometry">
            <Array as="points">
              <mxPoint x="268" y="262.5" />
              <mxPoint x="268" y="110.5" />
            </Array>
            <mxPoint x="220.5" y="262.5" as="sourcePoint" />
            <mxPoint x="248" y="110" as="targetPoint" />
          </mxGeometry>
        </mxCell>
        <mxCell id="WBBm-CLDshW_mHcTqunQ-1" value="&lt;font style=&quot;font-size: 9px;&quot;&gt;Username atau password sesuai?&lt;/font&gt;" style="rhombus;whiteSpace=wrap;html=1;" parent="WBBm-CLDshW_mHcTqunQ-8" vertex="1">
          <mxGeometry x="119.5" y="200" width="101" height="100" as="geometry" />
        </mxCell>
        <mxCell id="WBBm-CLDshW_mHcTqunQ-12" value="Tampilan dashboard SISEMAR" style="rounded=0;whiteSpace=wrap;html=1;" parent="WBBm-CLDshW_mHcTqunQ-8" vertex="1">
          <mxGeometry x="92" y="330" width="156" height="50" as="geometry" />
        </mxCell>
        <mxCell id="HcfepV2I2PUodawztDky-10" value="Iya" style="text;html=1;align=center;verticalAlign=middle;whiteSpace=wrap;rounded=0;" parent="WBBm-CLDshW_mHcTqunQ-8" vertex="1">
          <mxGeometry x="164" y="300" width="60" height="30" as="geometry" />
        </mxCell>
        <mxCell id="HcfepV2I2PUodawztDky-11" value="Tidak" style="text;html=1;align=center;verticalAlign=middle;whiteSpace=wrap;rounded=0;" parent="WBBm-CLDshW_mHcTqunQ-8" vertex="1">
          <mxGeometry x="210" y="220" width="60" height="30" as="geometry" />
        </mxCell>
        <mxCell id="HcfepV2I2PUodawztDky-2" style="edgeStyle=orthogonalEdgeStyle;rounded=0;orthogonalLoop=1;jettySize=auto;html=1;" parent="1" source="WBBm-CLDshW_mHcTqunQ-2" target="WBBm-CLDshW_mHcTqunQ-11" edge="1">
          <mxGeometry relative="1" as="geometry" />
        </mxCell>
        <mxCell id="HcfepV2I2PUodawztDky-6" style="edgeStyle=orthogonalEdgeStyle;rounded=0;orthogonalLoop=1;jettySize=auto;html=1;entryX=1;entryY=0.75;entryDx=0;entryDy=0;exitX=0.36;exitY=0.939;exitDx=0;exitDy=0;exitPerimeter=0;" parent="1" source="WBBm-CLDshW_mHcTqunQ-11" target="WBBm-CLDshW_mHcTqunQ-3" edge="1">
          <mxGeometry relative="1" as="geometry">
            <mxPoint x="-276.92" y="221.4100000000001" as="sourcePoint" />
            <mxPoint x="-499.98250000000013" y="298.59749999999997" as="targetPoint" />
            <Array as="points">
              <mxPoint x="-256" y="252" />
            </Array>
          </mxGeometry>
        </mxCell>
        <mxCell id="HcfepV2I2PUodawztDky-7" style="edgeStyle=orthogonalEdgeStyle;rounded=0;orthogonalLoop=1;jettySize=auto;html=1;entryX=0;entryY=0.5;entryDx=0;entryDy=0;" parent="1" source="WBBm-CLDshW_mHcTqunQ-3" target="WBBm-CLDshW_mHcTqunQ-1" edge="1">
          <mxGeometry relative="1" as="geometry">
            <Array as="points">
              <mxPoint x="-620" y="320" />
            </Array>
          </mxGeometry>
        </mxCell>
        <mxCell id="Ktfrbz1eTittHsfRS3eE-3" value="User" style="swimlane;whiteSpace=wrap;html=1;" vertex="1" parent="1">
          <mxGeometry x="-763" y="560" width="330" height="450" as="geometry" />
        </mxCell>
        <mxCell id="Ktfrbz1eTittHsfRS3eE-4" style="edgeStyle=orthogonalEdgeStyle;rounded=0;orthogonalLoop=1;jettySize=auto;html=1;" edge="1" parent="Ktfrbz1eTittHsfRS3eE-3" source="Ktfrbz1eTittHsfRS3eE-5" target="Ktfrbz1eTittHsfRS3eE-6">
          <mxGeometry relative="1" as="geometry" />
        </mxCell>
        <mxCell id="Ktfrbz1eTittHsfRS3eE-5" value="Mulai" style="ellipse;whiteSpace=wrap;html=1;" vertex="1" parent="Ktfrbz1eTittHsfRS3eE-3">
          <mxGeometry x="105" y="40" width="120" height="30" as="geometry" />
        </mxCell>
        <mxCell id="Ktfrbz1eTittHsfRS3eE-6" value="Membuka laman url sisemar" style="rounded=0;whiteSpace=wrap;html=1;" vertex="1" parent="Ktfrbz1eTittHsfRS3eE-3">
          <mxGeometry x="87" y="90" width="156" height="30" as="geometry" />
        </mxCell>
        <mxCell id="Ktfrbz1eTittHsfRS3eE-7" value="Input username dan password" style="shape=parallelogram;perimeter=parallelogramPerimeter;whiteSpace=wrap;html=1;fixedSize=1;" vertex="1" parent="Ktfrbz1eTittHsfRS3eE-3">
          <mxGeometry x="93" y="140" width="150" height="60" as="geometry" />
        </mxCell>
        <mxCell id="Ktfrbz1eTittHsfRS3eE-8" value="Sistem" style="swimlane;whiteSpace=wrap;html=1;startSize=23;" vertex="1" parent="1">
          <mxGeometry x="-403" y="560" width="340" height="450" as="geometry" />
        </mxCell>
        <mxCell id="Ktfrbz1eTittHsfRS3eE-9" value="Tampilan login SISEMAR" style="rounded=0;whiteSpace=wrap;html=1;" vertex="1" parent="Ktfrbz1eTittHsfRS3eE-8">
          <mxGeometry x="92" y="90" width="156" height="30" as="geometry" />
        </mxCell>
        <mxCell id="Ktfrbz1eTittHsfRS3eE-10" style="edgeStyle=orthogonalEdgeStyle;rounded=0;orthogonalLoop=1;jettySize=auto;html=1;" edge="1" parent="Ktfrbz1eTittHsfRS3eE-8" source="Ktfrbz1eTittHsfRS3eE-12" target="Ktfrbz1eTittHsfRS3eE-13">
          <mxGeometry relative="1" as="geometry" />
        </mxCell>
        <mxCell id="Ktfrbz1eTittHsfRS3eE-11" style="edgeStyle=orthogonalEdgeStyle;rounded=0;orthogonalLoop=1;jettySize=auto;html=1;entryX=1;entryY=0.25;entryDx=0;entryDy=0;" edge="1" parent="Ktfrbz1eTittHsfRS3eE-8">
          <mxGeometry relative="1" as="geometry">
            <Array as="points">
              <mxPoint x="268" y="262.5" />
              <mxPoint x="268" y="110.5" />
            </Array>
            <mxPoint x="220.5" y="262.5" as="sourcePoint" />
            <mxPoint x="248" y="110" as="targetPoint" />
          </mxGeometry>
        </mxCell>
        <mxCell id="Ktfrbz1eTittHsfRS3eE-12" value="&lt;font style=&quot;font-size: 9px;&quot;&gt;Username atau password sesuai?&lt;/font&gt;" style="rhombus;whiteSpace=wrap;html=1;" vertex="1" parent="Ktfrbz1eTittHsfRS3eE-8">
          <mxGeometry x="119.5" y="200" width="101" height="100" as="geometry" />
        </mxCell>
        <mxCell id="Ktfrbz1eTittHsfRS3eE-13" value="Tampilan dashboard SISEMAR" style="rounded=0;whiteSpace=wrap;html=1;" vertex="1" parent="Ktfrbz1eTittHsfRS3eE-8">
          <mxGeometry x="92" y="330" width="156" height="50" as="geometry" />
        </mxCell>
        <mxCell id="Ktfrbz1eTittHsfRS3eE-14" value="Iya" style="text;html=1;align=center;verticalAlign=middle;whiteSpace=wrap;rounded=0;" vertex="1" parent="Ktfrbz1eTittHsfRS3eE-8">
          <mxGeometry x="164" y="300" width="60" height="30" as="geometry" />
        </mxCell>
        <mxCell id="Ktfrbz1eTittHsfRS3eE-15" value="Tidak" style="text;html=1;align=center;verticalAlign=middle;whiteSpace=wrap;rounded=0;" vertex="1" parent="Ktfrbz1eTittHsfRS3eE-8">
          <mxGeometry x="210" y="220" width="60" height="30" as="geometry" />
        </mxCell>
        <mxCell id="Ktfrbz1eTittHsfRS3eE-16" style="edgeStyle=orthogonalEdgeStyle;rounded=0;orthogonalLoop=1;jettySize=auto;html=1;" edge="1" parent="1" source="Ktfrbz1eTittHsfRS3eE-6" target="Ktfrbz1eTittHsfRS3eE-9">
          <mxGeometry relative="1" as="geometry" />
        </mxCell>
        <mxCell id="Ktfrbz1eTittHsfRS3eE-17" style="edgeStyle=orthogonalEdgeStyle;rounded=0;orthogonalLoop=1;jettySize=auto;html=1;entryX=1;entryY=0.75;entryDx=0;entryDy=0;exitX=0.36;exitY=0.939;exitDx=0;exitDy=0;exitPerimeter=0;" edge="1" parent="1" source="Ktfrbz1eTittHsfRS3eE-9" target="Ktfrbz1eTittHsfRS3eE-7">
          <mxGeometry relative="1" as="geometry">
            <mxPoint x="-275.92" y="711.4100000000001" as="sourcePoint" />
            <mxPoint x="-498.98250000000013" y="788.5974999999999" as="targetPoint" />
            <Array as="points">
              <mxPoint x="-255" y="742" />
            </Array>
          </mxGeometry>
        </mxCell>
        <mxCell id="Ktfrbz1eTittHsfRS3eE-18" style="edgeStyle=orthogonalEdgeStyle;rounded=0;orthogonalLoop=1;jettySize=auto;html=1;entryX=0;entryY=0.5;entryDx=0;entryDy=0;" edge="1" parent="1" source="Ktfrbz1eTittHsfRS3eE-7" target="Ktfrbz1eTittHsfRS3eE-12">
          <mxGeometry relative="1" as="geometry">
            <Array as="points">
              <mxPoint x="-619" y="810" />
            </Array>
          </mxGeometry>
        </mxCell>
      </root>
    </mxGraphModel>
  </diagram>
</mxfile>
